<?xml version="1.0" encoding="UTF-8" standalone="no"?>
<!DOCTYPE svg PUBLIC "-//W3C//DTD SVG 1.1//EN"
 "http://www.w3.org/Graphics/SVG/1.1/DTD/svg11.dtd">
<!-- Generated by graphviz version 2.40.1 (20161225.0304)
 -->
<!-- Title: mp_flow Pages: 1 -->
<svg width="284pt" height="565pt"
 viewBox="0.00 0.00 283.84 564.80" xmlns="http://www.w3.org/2000/svg" xmlns:xlink="http://www.w3.org/1999/xlink">
<g id="graph0" class="graph" transform="scale(1 1) rotate(0) translate(4 560.8)">
<title>mp_flow</title>
<polygon fill="#ffffff" stroke="transparent" points="-4,4 -4,-560.8 279.8387,-560.8 279.8387,4 -4,4"/>
<!-- stage1 -->
<g id="node1" class="node">
<title>stage1</title>
<polygon fill="#d3d3d3" stroke="#000000" points="169.0839,-556.8 104.5865,-556.8 104.5865,-520.8 169.0839,-520.8 169.0839,-556.8"/>
<text text-anchor="middle" x="136.8352" y="-534.6" font-family="Helvetica,sans-Serif" font-size="14.00" fill="#000000">Stage 1</text>
</g>
<!-- examine -->
<g id="node2" class="node">
<title>examine</title>
<polygon fill="#d3d3d3" stroke="#000000" points="211.352,-484.6019 62.3184,-484.6019 62.3184,-443.3981 211.352,-443.3981 211.352,-484.6019"/>
<text text-anchor="middle" x="136.8352" y="-468.2" font-family="Helvetica,sans-Serif" font-size="14.00" fill="#000000">Examine tuned MPs</text>
<text text-anchor="middle" x="136.8352" y="-451.4" font-family="Helvetica,sans-Serif" font-size="14.00" fill="#000000">(indices and controls)</text>
</g>
<!-- stage1&#45;&gt;examine -->
<g id="edge1" class="edge">
<title>stage1&#45;&gt;examine</title>
<path fill="none" stroke="#000000" d="M136.8352,-520.693C136.8352,-513.0083 136.8352,-503.8272 136.8352,-495.1145"/>
<polygon fill="#000000" stroke="#000000" points="140.3353,-494.8515 136.8352,-484.8515 133.3353,-494.8515 140.3353,-494.8515"/>
</g>
<!-- pick -->
<g id="node3" class="node">
<title>pick</title>
<polygon fill="#d3d3d3" stroke="#000000" points="230.4979,-407.2 43.1725,-407.2 43.1725,-371.2 230.4979,-371.2 230.4979,-407.2"/>
<text text-anchor="middle" x="136.8352" y="-385" font-family="Helvetica,sans-Serif" font-size="14.00" fill="#000000">Pick reasonable candidates</text>
</g>
<!-- examine&#45;&gt;pick -->
<g id="edge2" class="edge">
<title>examine&#45;&gt;pick</title>
<path fill="none" stroke="#000000" d="M136.8352,-443.164C136.8352,-435.2614 136.8352,-426.1223 136.8352,-417.6373"/>
<polygon fill="#000000" stroke="#000000" points="140.3353,-417.3816 136.8352,-407.3816 133.3353,-417.3816 140.3353,-417.3816"/>
</g>
<!-- stage2 -->
<g id="node4" class="node">
<title>stage2</title>
<polygon fill="#d3d3d3" stroke="#000000" points="169.0839,-335.2 104.5865,-335.2 104.5865,-299.2 169.0839,-299.2 169.0839,-335.2"/>
<text text-anchor="middle" x="136.8352" y="-313" font-family="Helvetica,sans-Serif" font-size="14.00" fill="#000000">Stage 2</text>
</g>
<!-- pick&#45;&gt;stage2 -->
<g id="edge3" class="edge">
<title>pick&#45;&gt;stage2</title>
<path fill="none" stroke="#000000" d="M136.8352,-371.0314C136.8352,-363.331 136.8352,-354.1743 136.8352,-345.6166"/>
<polygon fill="#000000" stroke="#000000" points="140.3353,-345.6132 136.8352,-335.6133 133.3353,-345.6133 140.3353,-345.6132"/>
</g>
<!-- evaluate -->
<g id="node5" class="node">
<title>evaluate</title>
<polygon fill="#d3d3d3" stroke="#000000" points="235.8884,-263.0019 37.782,-263.0019 37.782,-221.7981 235.8884,-221.7981 235.8884,-263.0019"/>
<text text-anchor="middle" x="136.8352" y="-246.6" font-family="Helvetica,sans-Serif" font-size="14.00" fill="#000000">Evaluate via robustness tests</text>
<text text-anchor="middle" x="136.8352" y="-229.8" font-family="Helvetica,sans-Serif" font-size="14.00" fill="#000000">(no re&#45;tuning)</text>
</g>
<!-- stage2&#45;&gt;evaluate -->
<g id="edge4" class="edge">
<title>stage2&#45;&gt;evaluate</title>
<path fill="none" stroke="#000000" d="M136.8352,-299.093C136.8352,-291.4083 136.8352,-282.2272 136.8352,-273.5145"/>
<polygon fill="#000000" stroke="#000000" points="140.3353,-273.2515 136.8352,-263.2515 133.3353,-273.2515 140.3353,-273.2515"/>
</g>
<!-- enso -->
<g id="node6" class="node">
<title>enso</title>
<polygon fill="#d3d3d3" stroke="#000000" points="55.5066,-185.6 .1638,-185.6 .1638,-149.6 55.5066,-149.6 55.5066,-185.6"/>
<text text-anchor="middle" x="27.8352" y="-163.4" font-family="Helvetica,sans-Serif" font-size="14.00" fill="#000000">ENSO</text>
</g>
<!-- evaluate&#45;&gt;enso -->
<g id="edge5" class="edge">
<title>evaluate&#45;&gt;enso</title>
<path fill="none" stroke="#000000" d="M106.7619,-221.7626C93.0898,-212.3802 76.8317,-201.2233 62.6346,-191.4807"/>
<polygon fill="#000000" stroke="#000000" points="64.3284,-188.3982 54.1027,-185.6258 60.3676,-194.1699 64.3284,-188.3982"/>
</g>
<!-- h2 -->
<g id="node7" class="node">
<title>h2</title>
<polygon fill="#d3d3d3" stroke="#000000" points="127.8352,-185.6 73.8352,-185.6 73.8352,-149.6 127.8352,-149.6 127.8352,-185.6"/>
<text text-anchor="middle" x="100.8352" y="-163.4" font-family="Helvetica,sans-Serif" font-size="14.00" fill="#000000">H2</text>
</g>
<!-- evaluate&#45;&gt;h2 -->
<g id="edge6" class="edge">
<title>evaluate&#45;&gt;h2</title>
<path fill="none" stroke="#000000" d="M126.8072,-221.564C122.8348,-213.3102 118.2132,-203.7075 113.979,-194.91"/>
<polygon fill="#000000" stroke="#000000" points="117.0762,-193.2744 109.5857,-185.7816 110.7687,-196.3102 117.0762,-193.2744"/>
</g>
<!-- h2m -->
<g id="node8" class="node">
<title>h2m</title>
<polygon fill="#d3d3d3" stroke="#000000" points="199.8352,-185.6 145.8352,-185.6 145.8352,-149.6 199.8352,-149.6 199.8352,-185.6"/>
<text text-anchor="middle" x="172.8352" y="-163.4" font-family="Helvetica,sans-Serif" font-size="14.00" fill="#000000">H2m</text>
</g>
<!-- evaluate&#45;&gt;h2m -->
<g id="edge7" class="edge">
<title>evaluate&#45;&gt;h2m</title>
<path fill="none" stroke="#000000" d="M146.8632,-221.564C150.8356,-213.3102 155.4572,-203.7075 159.6914,-194.91"/>
<polygon fill="#000000" stroke="#000000" points="162.9017,-196.3102 164.0847,-185.7816 156.5942,-193.2744 162.9017,-196.3102"/>
</g>
<!-- others -->
<g id="node9" class="node">
<title>others</title>
<polygon fill="#d3d3d3" stroke="#000000" points="275.8422,-185.6 217.8282,-185.6 217.8282,-149.6 275.8422,-149.6 275.8422,-185.6"/>
<text text-anchor="middle" x="246.8352" y="-163.4" font-family="Helvetica,sans-Serif" font-size="14.00" fill="#000000">Others</text>
</g>
<!-- evaluate&#45;&gt;others -->
<g id="edge8" class="edge">
<title>evaluate&#45;&gt;others</title>
<path fill="none" stroke="#000000" d="M167.1844,-221.7626C180.9819,-212.3802 197.3892,-201.2233 211.7166,-191.4807"/>
<polygon fill="#000000" stroke="#000000" points="214.0255,-194.1432 220.3267,-185.6258 210.0893,-188.3547 214.0255,-194.1432"/>
</g>
<!-- stage3 -->
<g id="node10" class="node">
<title>stage3</title>
<polygon fill="#d3d3d3" stroke="#000000" points="169.0839,-113.6 104.5865,-113.6 104.5865,-77.6 169.0839,-77.6 169.0839,-113.6"/>
<text text-anchor="middle" x="136.8352" y="-91.4" font-family="Helvetica,sans-Serif" font-size="14.00" fill="#000000">Stage 3</text>
</g>
<!-- enso&#45;&gt;stage3 -->
<g id="edge9" class="edge">
<title>enso&#45;&gt;stage3</title>
<path fill="none" stroke="#000000" d="M55.3405,-149.4314C69.1532,-140.3074 86.0608,-129.139 100.8881,-119.3449"/>
<polygon fill="#000000" stroke="#000000" points="102.9238,-122.1949 109.3387,-113.7628 99.0656,-116.3541 102.9238,-122.1949"/>
</g>
<!-- h2&#45;&gt;stage3 -->
<g id="edge10" class="edge">
<title>h2&#45;&gt;stage3</title>
<path fill="none" stroke="#000000" d="M109.9195,-149.4314C113.8967,-141.4771 118.6507,-131.969 123.0491,-123.1723"/>
<polygon fill="#000000" stroke="#000000" points="126.2869,-124.5228 127.6286,-114.0133 120.0259,-121.3923 126.2869,-124.5228"/>
</g>
<!-- h2m&#45;&gt;stage3 -->
<g id="edge11" class="edge">
<title>h2m&#45;&gt;stage3</title>
<path fill="none" stroke="#000000" d="M163.7509,-149.4314C159.7737,-141.4771 155.0197,-131.969 150.6213,-123.1723"/>
<polygon fill="#000000" stroke="#000000" points="153.6445,-121.3923 146.0418,-114.0133 147.3835,-124.5228 153.6445,-121.3923"/>
</g>
<!-- others&#45;&gt;stage3 -->
<g id="edge12" class="edge">
<title>others&#45;&gt;stage3</title>
<path fill="none" stroke="#000000" d="M219.0776,-149.4314C205.1382,-140.3074 188.0754,-129.139 173.1121,-119.3449"/>
<polygon fill="#000000" stroke="#000000" points="174.8678,-116.311 164.584,-113.7628 171.0342,-122.1679 174.8678,-116.311"/>
</g>
<!-- report -->
<g id="node11" class="node">
<title>report</title>
<polygon fill="#d3d3d3" stroke="#000000" points="241.258,-41.4019 32.4124,-41.4019 32.4124,-.1981 241.258,-.1981 241.258,-41.4019"/>
<text text-anchor="middle" x="136.8352" y="-25" font-family="Helvetica,sans-Serif" font-size="14.00" fill="#000000">Report on relative performance</text>
<text text-anchor="middle" x="136.8352" y="-8.2" font-family="Helvetica,sans-Serif" font-size="14.00" fill="#000000">and trade&#45;offs</text>
</g>
<!-- stage3&#45;&gt;report -->
<g id="edge13" class="edge">
<title>stage3&#45;&gt;report</title>
<path fill="none" stroke="#000000" d="M136.8352,-77.493C136.8352,-69.8083 136.8352,-60.6272 136.8352,-51.9145"/>
<polygon fill="#000000" stroke="#000000" points="140.3353,-51.6515 136.8352,-41.6515 133.3353,-51.6515 140.3353,-51.6515"/>
</g>
</g>
</svg>

